<?xml version="1.0" standalone="no"?>
<!DOCTYPE svg PUBLIC "-//W3C//DTD SVG 20010904//EN"
 "http://www.w3.org/TR/2001/REC-SVG-20010904/DTD/svg10.dtd">
<svg version="1.0" xmlns="http://www.w3.org/2000/svg"
 width="1080.000000pt" height="1080.000000pt" viewBox="0 0 1080.000000 1080.000000"
 preserveAspectRatio="xMidYMid meet">
<metadata>
Created by potrace 1.14, written by Peter Selinger 2001-2017
</metadata>
<g transform="translate(0.000000,1080.000000) scale(0.100000,-0.100000)"
fill="#000000" stroke="none">
<path d="M5180 10719 c-1152 -41 -2270 -470 -3175 -1217 -869 -717 -1501
-1718 -1770 -2804 -266 -1072 -198 -2191 195 -3213 613 -1596 1985 -2819 3631
-3239 526 -134 1004 -185 1552 -165 1176 43 2289 472 3206 1237 713 595 1279
1402 1590 2271 324 901 400 1885 220 2821 -266 1381 -1085 2621 -2244 3400
-269 180 -643 387 -855 473 -36 14 -120 48 -186 75 -178 73 -431 153 -664 211
-491 121 -971 169 -1500 150z"/>
</g>
</svg>
